# xmcd
#
# Track frame offsets: 
#        150
#        13410
#        27317
#        41212
#        54075
#        69545
#        83560
#        97117
#        110850
#        125450
#        139482
#        153510
#        166387
#        179352
#        194082
#        207145
#        222590
#        236222
#        249705
#        264115
#
# Disc length: 3698 seconds
#
# Revision: 2
# Processed by: cddbd v1.5.1PL2 Copyright (c) Steve Scherf et al.
# Submitted via: ExactAudioCopy v0.95b3
#
DISCID=330e7014
DTITLE=Josh White - Blues Singer 1932-1936
DYEAR=1996
DGENRE=Piedmont Blues
TTITLE0=New Milk Cow Blues
TTITLE1=Milk Cow Blues
TTITLE2=Black Man
TTITLE3=Friendless City Blues
TTITLE4=Lord, I Want to Die Easy
TTITLE5=Did You Read That Letter?
TTITLE6=My Father Is a Husbandman
TTITLE7=Paul and Silas Bound in Jail
TTITLE8=Black and Evil Blues
TTITLE9=Howling Wolf Blues
TTITLE10=Greenville Sheik
TTITLE11=Double Crossing Woman
TTITLE12=Lazy Black Snake Blues
TTITLE13=Downhearted Man Blues
TTITLE14=Low Cotton
TTITLE15=Welfare Blues
TTITLE16=Stormy Weather No. 1
TTITLE17=Silicosis Is Killin' Me
TTITLE18=Badly Mistreated Man
TTITLE19=Bed Spring Blues
EXTD=Recorded 1932-04-06/1936-02-26.\nCD: Columbia/Legacy CK 67001 (19
EXTD=96-02-06).
EXTT0=
EXTT1=
EXTT2=
EXTT3=
EXTT4=
EXTT5=
EXTT6=
EXTT7=
EXTT8=
EXTT9=Recorded New York US-NY, 1932-04-06 (matrix 11659-1) - Banner 324
EXTT9=37, Conqueror 8245 (for both, as "Joshua White").
EXTT10=
EXTT11=
EXTT12=
EXTT13=
EXTT14=
EXTT15=
EXTT16=
EXTT17=
EXTT18=
EXTT19=
PLAYORDER=
